<svg width="82" height="234" viewBox="0 0 82 234" fill="none" xmlns="http://www.w3.org/2000/svg">
<path fill-rule="evenodd" clip-rule="evenodd" d="M64.2129 8.97849C53.6129 -0.721506 38.4129 -3.52151 24.8129 5.37849C17.5129 10.1785 12.1129 16.6785 8.21291 24.3785C0.812908 38.5785 -1.38709 53.6785 0.812908 69.4785C2.21291 79.8785 5.71291 89.4785 12.2129 97.8785C17.4129 104.678 23.9129 109.578 32.3129 111.678C33.1623 111.874 33.9689 112.028 34.8445 112.194C35.309 112.283 35.7929 112.375 36.3129 112.478C36.0676 112.994 35.8223 113.497 35.5814 113.991C34.8403 115.511 34.1412 116.945 33.6129 118.378C32.5129 121.178 32.9129 122.778 35.4129 124.278C36.2129 124.778 36.5129 125.078 36.2129 126.178C34.2129 131.978 35.8129 136.878 40.0129 141.178C41.5129 142.778 43.0129 144.478 44.1129 146.378C46.3129 149.978 46.8129 153.678 45.6129 157.779C44.7129 160.578 43.4129 163.178 42.0129 165.779C40.0129 169.378 38.0129 173.078 36.7129 176.979C34.8129 182.479 34.9129 187.878 37.7129 193.178C38.2129 194.128 38.7379 195.053 39.2629 195.978C39.7879 196.903 40.3129 197.828 40.8129 198.779C42.3129 201.378 43.7129 204.078 44.7129 206.979C45.7129 209.678 46.3129 212.578 45.5129 215.279L45.4634 215.452C43.8797 220.996 42.2717 226.625 38.3129 231.079C37.9129 231.579 37.6129 232.078 38.0129 232.678C38.4129 233.378 39.1129 233.578 39.8129 233.378C41.1129 233.078 41.8129 231.979 42.4129 230.979C43.5247 229.082 44.3799 227.057 45.2302 225.044C45.68 223.978 46.1285 222.917 46.6129 221.878C49.8129 214.878 49.1129 208.078 45.6129 201.479C45.2129 200.779 44.8379 200.054 44.463 199.329C44.0879 198.604 43.7129 197.879 43.3129 197.178C42.885 196.4 42.4419 195.622 41.9954 194.838L41.9952 194.838L41.9951 194.838L41.9949 194.837C41.294 193.607 40.5848 192.361 39.9129 191.079C38.1129 187.479 37.8129 183.778 38.9129 179.878C39.8129 176.678 41.2129 173.578 42.7129 170.678C43.1227 169.904 43.5428 169.136 43.9627 168.367C45.3872 165.76 46.8089 163.159 47.8129 160.378C50.1129 154.278 49.4129 148.678 45.5129 143.479C44.7715 142.441 43.9202 141.458 43.0812 140.489C42.7886 140.151 42.4974 139.815 42.2129 139.479C42.0038 139.217 41.7879 138.956 41.5705 138.693C40.9561 137.949 40.33 137.191 39.8129 136.378C38.4129 134.378 37.9129 132.178 38.3129 129.779C38.5129 128.479 38.7129 127.178 39.4129 126.078C39.8707 125.359 40.6277 125.367 41.3765 125.374H41.3766C41.7729 125.378 42.1669 125.382 42.5129 125.278C47.2129 124.178 47.3129 121.278 45.2129 118.778C43.8129 117.078 42.7129 115.178 42.6129 112.578C46.4129 111.978 49.7129 110.979 52.9129 109.378C60.9129 105.479 67.0129 99.3785 71.3129 91.7785C83.1129 71.2785 84.7129 49.8785 76.6129 27.7785C74.1129 20.4785 69.9129 14.1785 64.2129 8.97849ZM41.5129 121.478C41.1602 121.478 40.7688 121.517 40.3672 121.557C39.0612 121.686 37.6483 121.826 37.1129 120.678C36.6429 119.582 37.4615 118.301 38.367 116.884C38.6175 116.492 38.8746 116.09 39.1129 115.678C39.8534 117.092 40.5032 118.279 41.0624 119.301L41.0625 119.301L41.0628 119.301L41.0629 119.301C41.3342 119.797 41.5842 120.254 41.8129 120.678C41.8129 121.278 41.7129 121.478 41.5129 121.478ZM68.2129 89.7785C64.8129 95.3785 60.5129 100.178 55.0129 103.778C43.4129 111.278 30.3129 110.178 20.1129 100.878C14.7129 95.9785 10.7129 89.9785 8.31291 83.1785C1.01291 62.5785 2.41291 42.5785 13.0129 23.3785C16.0129 17.9785 20.1129 13.2785 25.2129 9.67849C37.2129 1.07849 51.4129 1.97849 62.0129 12.1785C69.3129 19.0785 73.4129 27.7785 75.8129 37.3785C77.1129 42.3785 77.7129 47.4785 77.7129 52.6785C77.9129 65.9785 75.1129 78.3785 68.2129 89.7785ZM14.5129 39.3785C13.6129 38.8785 12.9129 39.3785 12.5129 40.0785C12.0129 40.8785 11.7129 41.6785 11.4129 42.5785C9.8129 47.1785 9.5129 51.9785 9.8129 57.3785C9.84013 57.7053 9.86737 58.0691 9.89662 58.46C9.97478 59.5044 10.0674 60.7414 10.2129 61.9785C10.2326 62.1554 10.2483 62.3322 10.2641 62.5083C10.3283 63.2283 10.3915 63.9357 10.7129 64.5785C11.0129 65.2785 11.5129 65.6785 12.4129 65.5785C13.3129 65.4785 13.5129 64.7785 13.5129 63.9785C13.5129 63.4785 13.4129 62.9785 13.3129 62.4785C12.4129 55.3785 12.0129 48.2785 15.0129 41.4785C15.0129 41.4285 15.0379 41.3785 15.0629 41.3285C15.0879 41.2785 15.1129 41.2285 15.1129 41.1785C15.3129 40.4785 15.3129 39.7785 14.5129 39.3785ZM70.5128 48.6785C70.7128 47.9785 71.2128 47.4785 72.0128 47.4785C72.7128 47.4785 73.1128 47.9785 73.2128 48.5785C73.5127 50.2785 73.6127 51.9784 73.7127 53.6783L73.7128 53.6785C73.7128 58.8883 72.4652 63.7861 71.2095 68.7164C71.0431 69.3696 70.8765 70.0234 70.7128 70.6785C70.6794 70.7785 70.6572 70.8785 70.635 70.9785C70.5905 71.1785 70.5461 71.3785 70.4128 71.5785C69.9128 72.3785 69.3128 73.1785 68.2128 72.7785C67.1128 72.3785 67.2128 71.4785 67.5128 70.4785C68.9128 65.8785 70.1128 61.1785 70.5128 56.2785C70.6128 54.2785 70.6128 52.3785 70.5128 50.4785C70.5128 50.2785 70.5017 50.0785 70.4905 49.8785C70.4683 49.4785 70.4461 49.0785 70.5128 48.6785ZM13.213 69.4785C12.113 69.4785 11.613 70.1785 11.613 71.1785C11.613 72.2785 12.313 72.7785 13.313 72.8785C14.213 72.6785 14.813 72.1785 14.713 71.2785C14.713 70.2785 14.313 69.4785 13.213 69.4785ZM65.7129 77.0785C65.7129 76.1785 66.2129 75.6785 67.1129 75.4785C68.2129 75.5785 68.8129 76.1785 68.9129 77.0785C69.0129 78.0785 68.4129 78.6785 67.5129 78.6785C66.5129 78.6785 65.7129 78.1785 65.7129 77.0785Z" fill="white"/>
</svg>
