<svg width="23" height="31" viewBox="0 0 23 31" fill="none" xmlns="http://www.w3.org/2000/svg">
<path d="M21.7 12.7153C20.4 12.0153 18.9 11.7153 17.5 11.4153C14.8 10.8153 14.8 10.8153 14.6 8.11531C14.5 5.91531 14.3 3.61531 14.1 1.41531C14 0.715314 13.8 0.115314 13.1 0.0153144C12.4 -0.0846856 11.9 0.315314 11.6 0.915314C11.4 1.31531 11.2 1.81531 11.1 2.21531C10.7 3.51531 10.4 4.91531 10 6.21531C9.5 7.91531 9.8 10.0153 8.6 11.1153C7.4 12.1153 5.4 12.2153 3.8 12.7153C3.1 12.9153 2.3 13.1153 1.6 13.4153C0.8 13.6153 0 14.1153 0 15.1153C0 16.2153 0.8 16.6153 1.6 16.9153C2.1 17.1153 2.6 17.2153 3.2 17.3153C4.8 17.6153 6.4 18.0153 8 18.3153C9 18.4153 9.4 18.8153 9.6 19.9153C10 22.7153 10.6 25.6153 11.1 28.4153C11.3 29.3153 11.3 30.7153 12.5 30.8153C13.9 30.8153 13.9 29.4153 14.1 28.4153C14.7 25.6153 14.6 22.7153 14.9 19.8153C15 18.7153 15.3 18.2153 16.4 17.9153C18.2 17.4153 19.9 16.7153 21.6 16.0153C22.3 15.7153 23 15.3153 23 14.3153C22.9 13.4153 22.3 13.0153 21.7 12.7153Z" fill="#5B1A0D"/>
</svg>
