<svg width="7" height="5" viewBox="0 0 7 5" fill="none" xmlns="http://www.w3.org/2000/svg">
<path d="M4.5 0.404052C4.2 0.404052 4 0.404052 3.7 0.304052C3.1 0.00405183 2.5 -0.0959482 1.9 0.104052H1.8C0.8 0.504052 0 1.30405 0 2.40405C0 3.50405 0.7 4.30405 1.8 4.70405C1.8 4.70405 1.9 4.70405 1.9 4.80405C2.5 5.00405 3.1 4.90405 3.7 4.60405C4 4.60405 4.2 4.60405 4.5 4.50405C5.1 4.40405 5.5 4.30405 6 3.90405C6.3 3.50405 6.6 3.00405 6.5 2.40405C6.5 1.20405 5.6 0.504052 4.5 0.404052Z" fill="white"/>
</svg>
