<svg width="57" height="28" viewBox="0 0 57 28" fill="none" xmlns="http://www.w3.org/2000/svg">
<path d="M2.36858 27.0303C4.39879 27.199 5.07553 26.0178 5.07553 24.1615C5.07553 23.4865 5.24471 22.8115 5.24471 22.1365C7.27492 12.8553 17.5952 6.27405 26.5619 8.63655C26.9003 10.324 25.8852 11.5053 25.5468 13.024C25.0393 15.2178 24.8701 17.4115 25.716 19.6053C27.2387 24.1615 31.4683 25.174 34.852 21.6303C37.3897 18.7615 37.7281 15.5553 36.713 12.0115C36.2054 10.6615 35.5287 9.31155 35.0211 7.96155C36.5438 6.27405 38.4048 6.1053 40.2659 5.7678C44.3263 5.0928 48.3867 4.7553 52.4471 5.4303C54.139 5.7678 55.6616 5.59905 56 3.7428C56.5075 1.7178 55.1541 0.367797 53.2931 0.199047C46.3565 -0.138453 39.2508 -0.475953 32.8218 3.0678C31.6375 3.7428 30.6224 4.4178 29.0997 3.7428C19.1178 0.199047 7.78248 6.7803 2.87613 14.5428C1.18429 17.4115 0 20.449 0 23.6553C0 25.174 0.507553 26.8615 2.36858 27.0303ZM30.9607 17.9178C30.284 15.5553 30.284 15.5553 31.2991 13.1928C32.3142 15.5553 32.3142 15.5553 30.9607 17.9178Z" fill="#5B1A0D"/>
</svg>
