<svg width="30" height="18" viewBox="0 0 30 18" fill="none" xmlns="http://www.w3.org/2000/svg">
<path d="M11.3354 4.88339C8.73536 4.68339 6.53536 3.68339 4.63536 1.88339C4.13536 1.38339 3.63536 0.983386 3.13536 0.583386C2.43536 -0.0166141 1.53536 -0.216614 0.735356 0.283386C-0.164644 0.783386 -0.0646443 1.68339 0.135356 2.58339C0.635356 4.78339 1.33536 6.88339 2.83536 8.58339C5.03536 10.9834 7.53536 13.1834 10.3354 14.8834C13.4354 16.6834 16.7354 17.5834 20.2354 17.5834C22.1354 17.6834 23.9354 17.3834 25.6354 16.5834C28.7354 15.0834 29.9354 12.3834 29.0354 8.88339C28.0354 5.38339 25.7354 3.58339 22.3354 3.78339C20.9354 3.88339 19.4354 4.18339 18.0354 4.38339C15.8354 4.88339 13.6354 5.08339 11.3354 4.88339ZM22.3354 6.68339C24.6354 6.48339 25.8354 7.48339 26.3354 9.88339C26.8354 11.9834 26.0354 13.3834 23.9354 14.1834C23.3354 14.3834 22.6354 14.5834 21.9354 14.5834C14.5354 15.1834 9.23536 11.4834 4.73536 5.98339C9.83536 8.58339 15.0354 7.98339 20.3354 6.98339C20.9354 6.88339 21.6354 6.68339 22.3354 6.68339Z" fill="white"/>
</svg>
