<svg width="109" height="111" viewBox="0 0 109 111" fill="none" xmlns="http://www.w3.org/2000/svg">
<g clip-path="url(#clip0_213_890)">
<path d="M84.9666 101.422C76.2188 107.47 65.6304 111.004 54.1976 111.004C42.7648 111.004 32.1764 107.47 23.4286 101.422V100.294C23.4286 91.514 16.3048 84.3814 7.53526 84.3814C2.74994 76.2948 0 66.8208 0 56.7181C0 26.9302 23.7751 2.8007 53.5264 2.45382C83.7757 2.08527 108.417 26.5183 108.417 56.7398C108.417 66.8425 105.667 76.2948 100.86 84.403C92.0904 84.403 84.9666 91.5357 84.9666 100.316V101.422Z" fill="#5A1404"/>
<path d="M100.86 84.3813C96.8543 91.1454 91.4194 96.9556 84.9668 101.422H23.4505C16.9979 96.9556 11.5629 91.1454 7.55713 84.3813V42.7997H100.86V84.3813Z" fill="#F19B0B"/>
<path d="M100.86 84.3814C96.854 91.1454 91.4191 96.9556 84.9665 101.422H23.4502C19.5093 98.69 15.9582 95.4597 12.8618 91.8175V46.1384C12.8618 44.2956 14.3559 42.8214 16.1747 42.8214H100.86V84.3814Z" fill="#FECC2F"/>
<path d="M100.86 48.7616L54.2195 77.2271L7.55713 48.7616V41.3472L52.7254 0.589356C53.5699 -0.169434 54.8474 -0.169434 55.6919 0.589356L100.86 41.3472V48.7616Z" fill="#D98800"/>
<path d="M83.4293 90.5818L82.1085 92.8365C81.9352 93.14 81.5238 93.14 81.3506 92.8365L80.0298 90.5818C79.9865 90.5167 79.9432 90.4517 79.8782 90.43L77.6263 89.1075C77.3231 88.9341 77.3231 88.5222 77.6263 88.3488L79.8782 87.0263C79.9432 86.9829 80.0081 86.9396 80.0298 86.8745L81.3506 84.6198C81.5238 84.3163 81.9352 84.3163 82.1085 84.6198L83.4293 86.8745C83.4726 86.9396 83.5159 87.0046 83.5809 87.0263L85.8328 88.3488C86.1359 88.5222 86.1359 88.9341 85.8328 89.1075L83.5809 90.43C83.5375 90.4517 83.4726 90.5167 83.4293 90.5818Z" fill="#FFF5F5"/>
<path d="M91.0942 13.2937V53.7047L54.2191 74.2787L17.3223 53.7047V13.2937C17.3223 12.0797 18.3183 11.0824 19.5309 11.0824H88.864C90.0982 11.0824 91.0942 12.0797 91.0942 13.2937Z" fill="#FADEB9"/>
<path d="M85.2049 57.6069L54.2194 77.5523L23.2339 57.6069V17.7163H85.1833V57.6069H85.2049Z" fill="#FFF5F5"/>
<path d="M70.8056 52.6206C70.8056 53.5312 70.0694 54.29 69.1383 54.29H39.2571C38.3477 54.29 37.5898 53.5529 37.5898 52.6206C37.5898 51.6884 38.326 50.9513 39.2571 50.9513H69.1383C70.0694 50.9513 70.8056 51.7101 70.8056 52.6206ZM64.7211 57.065H43.696C42.7866 57.065 42.0287 57.8021 42.0287 58.7343C42.0287 59.6665 42.7649 60.4036 43.696 60.4036H64.7211C65.6305 60.4036 66.3884 59.6665 66.3884 58.7343C66.3884 57.8021 65.6522 57.065 64.7211 57.065Z" fill="#FADEB9"/>
<path d="M100.86 49.889L54.2195 79.4384L7.55713 49.889C7.55713 49.889 7.60044 44.7726 7.55713 43.5369L54.3927 73.1947L100.86 43.7537C100.882 44.4474 100.86 49.889 100.86 49.889Z" fill="#FDE803"/>
<path d="M81.3505 63.8507L76.0455 65.5851C75.9156 65.6284 75.8074 65.7368 75.7641 65.8669L74.0318 71.1784C73.9019 71.5903 73.3173 71.5903 73.1873 71.1784L71.4551 65.8669C71.4118 65.7368 71.3035 65.6284 71.1736 65.5851L65.8686 63.8507C65.4572 63.7206 65.4572 63.1353 65.8686 63.0052L71.1736 61.2708C71.3035 61.2275 71.4118 61.1191 71.4551 60.989L73.1873 55.6775C73.3173 55.2656 73.9019 55.2656 74.0318 55.6775L75.7641 60.989C75.8074 61.1191 75.9156 61.2275 76.0455 61.2708L81.3505 63.0052C81.7619 63.157 81.7619 63.7206 81.3505 63.8507Z" fill="#FDF385"/>
<path d="M72.4079 81.3462L69.4415 83.0806C69.3765 83.124 69.3116 83.1673 69.2899 83.2323L67.5577 86.2025C67.3844 86.506 66.973 86.506 66.7998 86.2025L65.0676 83.2323C65.0243 83.1673 64.9809 83.1023 64.916 83.0806L61.9495 81.3462C61.6464 81.1728 61.6464 80.7609 61.9495 80.5874L64.916 78.8531C64.9809 78.8097 65.0459 78.7663 65.0676 78.7013L66.7998 75.7312C66.973 75.4277 67.3844 75.4277 67.5577 75.7312L69.2899 78.7013C69.3332 78.7663 69.3765 78.8314 69.4415 78.8531L72.4079 80.5874C72.7111 80.7392 72.7111 81.1728 72.4079 81.3462Z" fill="#FADEB9"/>
<path d="M7.55713 49.889C7.55713 49.889 7.60044 44.7726 7.55713 43.5369L12.8621 46.8972V53.2494L7.55713 49.889Z" fill="#F1CA50"/>
<path d="M39.3869 40.2632V38.312H35.6626V36.556L38.3476 27.212H40.318L37.5248 36.556H39.3653V32.8271H41.2274V36.556H42.1152V38.312H41.2274V40.2632H39.3869Z" fill="#E43219"/>
<path d="M46.3594 29.9003C46.3594 29.4667 46.446 29.0764 46.5976 28.7296C46.7491 28.3827 46.944 28.1009 47.2038 27.8407C47.4637 27.6022 47.7668 27.4071 48.0916 27.277C48.4381 27.1469 48.7845 27.0819 49.1526 27.0819C49.5207 27.0819 49.8672 27.1469 50.2136 27.277C50.5601 27.4071 50.8416 27.6022 51.1014 27.8407C51.3612 28.0792 51.5561 28.3827 51.7077 28.7296C51.8593 29.0764 51.9459 29.4667 51.9459 29.9003V37.5749C51.9459 38.0085 51.8593 38.3987 51.7077 38.7456C51.5561 39.0925 51.3612 39.3743 51.1014 39.6345C50.8416 39.8729 50.5384 40.068 50.2136 40.1981C49.8672 40.3282 49.5207 40.3932 49.1526 40.3932C48.7845 40.3932 48.4381 40.3282 48.0916 40.1981C47.7452 40.068 47.4637 39.8729 47.2038 39.6345C46.944 39.396 46.7491 39.0925 46.5976 38.7456C46.446 38.3987 46.3594 38.0085 46.3594 37.5749V29.9003ZM48.2215 37.5749C48.2215 37.835 48.3082 38.0735 48.4814 38.247C48.6546 38.4204 48.8711 38.5071 49.131 38.5071C49.3908 38.5071 49.629 38.4204 49.7806 38.247C49.9538 38.0735 50.0404 37.8567 50.0404 37.5749V29.9003C50.0404 29.6401 49.9538 29.4016 49.7806 29.2282C49.6073 29.0548 49.3908 28.968 49.131 28.968C48.8711 28.968 48.6329 29.0548 48.4814 29.2282C48.3082 29.4016 48.2215 29.6184 48.2215 29.9003V37.5749Z" fill="#E43219"/>
<path d="M53.1582 29.9003C53.1582 29.4667 53.2448 29.0764 53.3964 28.7296C53.548 28.3827 53.7428 28.1009 54.0027 27.8407C54.2625 27.6022 54.544 27.4071 54.8904 27.277C55.2152 27.1469 55.5833 27.0819 55.9514 27.0819C56.3195 27.0819 56.666 27.1469 57.0124 27.277C57.3589 27.4071 57.6404 27.6022 57.9002 27.8407C58.1601 28.0792 58.3549 28.3827 58.5065 28.7296C58.6581 29.0764 58.7447 29.4667 58.7447 29.9003V37.5749C58.7447 38.0085 58.6581 38.3987 58.5065 38.7456C58.3549 39.0925 58.1384 39.3743 57.9002 39.6345C57.6404 39.8729 57.3372 40.068 57.0124 40.1981C56.666 40.3282 56.3195 40.3932 55.9514 40.3932C55.5833 40.3932 55.2369 40.3282 54.8904 40.1981C54.544 40.068 54.2625 39.8729 54.0027 39.6345C53.7428 39.396 53.548 39.0925 53.3964 38.7456C53.2448 38.3987 53.1582 38.0085 53.1582 37.5749V29.9003ZM55.042 37.5749C55.042 37.835 55.1286 38.0735 55.3019 38.247C55.4751 38.4204 55.6916 38.5071 55.9514 38.5071C56.2113 38.5071 56.4495 38.4204 56.601 38.247C56.7743 38.0735 56.8609 37.8567 56.8609 37.5749V29.9003C56.8609 29.6401 56.7743 29.4016 56.601 29.2282C56.4278 29.0548 56.2113 28.968 55.9514 28.968C55.6916 28.968 55.4534 29.0548 55.3019 29.2282C55.1286 29.4016 55.042 29.6184 55.042 29.9003V37.5749Z" fill="#E43219"/>
<path d="M59.979 29.9003C59.979 29.4667 60.0656 29.0764 60.2172 28.7296C60.3688 28.3827 60.5636 28.1009 60.8235 27.8407C61.0833 27.6022 61.3865 27.4071 61.7113 27.277C62.036 27.1469 62.4041 27.0819 62.7723 27.0819C63.1404 27.0819 63.4868 27.1469 63.8333 27.277C64.1797 27.4071 64.4612 27.6022 64.721 27.8407C64.9809 28.0792 65.1757 28.3827 65.3273 28.7296C65.4789 29.0764 65.5655 29.4667 65.5655 29.9003V37.5749C65.5655 38.0085 65.4789 38.3987 65.3273 38.7456C65.1757 39.0925 64.9809 39.3743 64.721 39.6345C64.4612 39.8729 64.158 40.068 63.8333 40.1981C63.4868 40.3282 63.1404 40.3932 62.7723 40.3932C62.4041 40.3932 62.0577 40.3282 61.7113 40.1981C61.3648 40.068 61.0833 39.8729 60.8235 39.6345C60.5636 39.396 60.3688 39.0925 60.2172 38.7456C60.0656 38.3987 59.979 38.0085 59.979 37.5749V29.9003ZM61.8412 37.5749C61.8412 37.835 61.9278 38.0735 62.101 38.247C62.2742 38.4204 62.4908 38.5071 62.7506 38.5071C63.0104 38.5071 63.2486 38.4204 63.4002 38.247C63.5734 38.0735 63.66 37.8567 63.66 37.5749V29.9003C63.66 29.6401 63.5734 29.4016 63.4002 29.2282C63.227 29.0548 63.0104 28.968 62.7506 28.968C62.4908 28.968 62.2526 29.0548 62.101 29.2282C61.9278 29.4016 61.8412 29.6184 61.8412 29.9003V37.5749Z" fill="#E43219"/>
<path d="M70.6539 40.2632V37.2714H69.6362V36.0573H70.6539V35.1685H69.6362V33.9544H70.6539V27.212H72.9491C73.3822 27.212 73.7719 27.2554 74.1617 27.3204C74.5514 27.3855 74.9195 27.6023 75.3093 27.9708C75.6557 28.296 75.8939 28.7296 76.0022 29.2499C76.1105 29.7702 76.1754 30.4206 76.1754 31.2011C76.1754 31.4613 76.1538 31.7431 76.1321 32.0249C76.1105 32.3284 76.0455 32.6103 75.9805 32.8921C75.9156 33.1739 75.829 33.4558 75.7207 33.6943C75.6124 33.9544 75.4825 34.1495 75.3093 34.323C75.0278 34.6265 74.703 34.8216 74.3566 34.9734C73.9885 35.1034 73.5338 35.1685 72.9275 35.1685H72.5161V36.0573H74.9629V37.2714H72.5161V40.2632H70.6539ZM72.5161 28.8597V33.5208H72.9275C73.2306 33.5208 73.4688 33.4775 73.642 33.3907C73.8152 33.304 73.9668 33.1739 74.0751 33.0005C74.205 32.8054 74.2916 32.5669 74.3349 32.2634C74.3782 31.9599 74.3999 31.6347 74.3999 31.2661C74.3999 31.1144 74.3999 30.9409 74.3999 30.7241C74.3999 30.529 74.3782 30.3339 74.3566 30.1388C74.3349 29.9437 74.2916 29.7702 74.2483 29.5968C74.1833 29.4234 74.1184 29.2933 74.0101 29.1849C73.7936 28.9681 73.4255 28.8597 72.9058 28.8597H72.5161Z" fill="#E43219"/>
</g>
<defs>
<clipPath id="clip0_213_890">
<rect width="108.438" height="111" fill="white" transform="translate(0 0.00402832)"/>
</clipPath>
</defs>
</svg>
