<svg width="110" height="111" viewBox="0 0 110 111" fill="none" xmlns="http://www.w3.org/2000/svg">
<g clip-path="url(#clip0_213_913)">
<path d="M54.6837 110.765C84.8846 110.765 109.367 86.2818 109.367 56.0809C109.367 25.8799 84.8846 1.39722 54.6837 1.39722C24.4827 1.39722 0 25.8799 0 56.0809C0 86.2818 24.4827 110.765 54.6837 110.765Z" fill="#5A1404"/>
<path d="M54.6837 110.765C84.8846 110.765 109.367 86.2818 109.367 56.0809C109.367 25.8799 84.8846 1.39722 54.6837 1.39722C24.4827 1.39722 0 25.8799 0 56.0809C0 86.2818 24.4827 110.765 54.6837 110.765Z" fill="#5A1404"/>
<path d="M78.63 37.9256C78.5429 41.9529 76.5184 45.1965 73.4707 46.089C73.4489 46.089 73.4272 46.089 73.4272 46.1108C63.3699 49.0278 52.5943 45.1312 44.2785 36.7936C35.9628 45.1529 25.1871 49.0278 15.1299 46.1108C15.1081 46.1108 15.0863 46.1108 15.0863 46.089C12.0387 45.1965 9.9924 41.9529 9.92709 37.9256C9.84002 32.9623 10.4931 27.7595 11.9951 22.5567C13.4972 17.354 15.7176 12.5865 18.4605 8.45044C20.681 5.09802 24.1205 3.44358 27.1899 4.31434C27.2117 4.31434 27.2334 4.31434 27.2334 4.33611C34.8743 6.55654 40.7737 12.3036 44.3003 20.0098C47.8051 12.3253 53.7045 6.55654 61.3672 4.33611C61.3889 4.33611 61.4107 4.33611 61.4107 4.31434C64.4584 3.44358 67.9196 5.07625 70.1401 8.45044C72.8612 12.5865 75.0816 17.3322 76.6054 22.5567C78.064 27.7813 78.717 32.9841 78.63 37.9256Z" fill="#E43219"/>
<path d="M75.9955 98.6393H20.3323C17.0669 96.1795 11.9948 90.6719 10.0791 87.8202V29.8711C10.0791 28.5215 11.1893 27.4113 12.539 27.4113H75.9955C77.3452 27.4113 78.4554 28.5215 78.4554 29.8711V96.1794C78.4554 97.5291 77.3452 98.6393 75.9955 98.6393Z" fill="#D98800"/>
<path d="M75.9957 98.6393H20.3325C19.7229 98.2475 18.3079 97.0502 17.0671 95.7876V49.5285C17.0671 48.1789 18.1773 47.0686 19.527 47.0686H78.4556V96.1794C78.4556 97.5291 77.3454 98.6393 75.9957 98.6393ZM81.2856 39.689V29.8711C81.2856 28.5215 80.1754 27.4113 78.8257 27.4113H9.68743C8.33776 27.4113 7.22754 28.5215 7.22754 29.8711V39.689C7.22754 41.0386 8.33776 42.1489 9.68743 42.1489H78.8475C80.1971 42.1489 81.2856 41.0604 81.2856 39.689Z" fill="#FECC2F"/>
<path d="M51.636 24.973V98.6392H36.8984V25.1689C36.8984 21.207 39.9461 17.7892 43.908 17.5933C48.1312 17.3974 51.636 20.7716 51.636 24.973Z" fill="#F52C2C"/>
<path d="M51.636 47.0686H36.8984V42.1488H51.636V47.0686Z" fill="#D73131"/>
<path d="M36.8984 27.4113V24.9514C36.8984 20.8806 40.2073 17.5935 44.2564 17.5935C48.3271 17.5935 51.6143 20.9024 51.6143 24.9514V27.4113H36.8984Z" fill="#E43219"/>
<path d="M98.9181 88.6037C89.0132 102.188 72.9695 111.004 54.8577 111.004C40.599 111.004 27.6465 105.54 17.9375 96.5929V67.4007C17.9375 65.5504 19.4396 64.0701 21.2682 64.0701H95.5656C97.416 64.0701 98.8963 65.5721 98.8963 67.4007V88.6037H98.9181Z" fill="#FFF5F5"/>
<path d="M29.0615 87.8201C29.0615 86.9058 29.8017 86.1439 30.7377 86.1439H60.7789C61.6932 86.1439 62.4551 86.8841 62.4551 87.8201C62.4551 88.7562 61.715 89.4963 60.7789 89.4963H30.7377C29.8017 89.4963 29.0615 88.7344 29.0615 87.8201ZM51.8754 92.261H30.7377C29.8234 92.261 29.0615 93.0011 29.0615 93.9372C29.0615 94.8733 29.8017 95.6134 30.7377 95.6134H51.8754C52.7897 95.6134 53.5516 94.8733 53.5516 93.9372C53.5516 93.0011 52.7897 92.261 51.8754 92.261ZM72.9913 100.62C72.077 100.62 71.3151 101.36 71.3151 102.297C71.3151 103.233 72.0552 103.973 72.9913 103.973C73.9274 103.973 74.6675 103.233 74.6675 102.297C74.6675 101.36 73.9274 100.62 72.9913 100.62ZM67.4402 100.62C66.5259 100.62 65.764 101.36 65.764 102.297C65.764 103.233 66.5042 103.973 67.4402 103.973C68.3763 103.973 69.1164 103.233 69.1164 102.297C69.1164 101.36 68.3545 100.62 67.4402 100.62ZM61.8674 100.62C60.9531 100.62 60.1912 101.36 60.1912 102.297C60.1912 103.233 60.9313 103.973 61.8674 103.973C62.8034 103.973 63.5436 103.233 63.5436 102.297C63.5436 101.36 62.8034 100.62 61.8674 100.62Z" fill="#FADEB9"/>
<path d="M86.9016 49.7679H80.2185C78.9994 49.7679 77.998 48.7665 77.998 47.5475V43.8685C77.998 42.6494 78.9994 41.6481 80.2185 41.6481H86.9016C88.1206 41.6481 89.122 42.6494 89.122 43.8685V47.5475C89.122 48.7883 88.1424 49.7679 86.9016 49.7679ZM89.122 96.0052V92.1739C89.122 89.1044 86.6403 86.6228 83.5709 86.6228C80.5015 86.6228 78.0198 89.1044 78.0198 92.1739V96.0052C78.0198 96.8324 78.2593 97.6596 78.6947 98.3563L83.0049 105.257C83.2661 105.671 83.8757 105.671 84.1369 105.257L88.4472 98.3563C88.9043 97.6596 89.122 96.8324 89.122 96.0052Z" fill="#F5C02C"/>
<path d="M86.9017 49.7679H83.9411C82.7221 49.7679 81.7207 48.7665 81.7207 47.5475V43.8685C81.7207 42.6494 82.7221 41.6481 83.9411 41.6481H86.9017C88.1208 41.6481 89.1222 42.6494 89.1222 43.8685V47.5475C89.1222 48.7883 88.1426 49.7679 86.9017 49.7679ZM88.4473 98.3562C88.8827 97.6596 89.1222 96.8324 89.1222 96.0052V92.1739C89.1222 89.8881 87.7507 87.9289 85.7915 87.0799C84.2459 87.7548 83.0051 89.148 82.5915 90.9113L82.4391 95.0691C82.2432 95.8746 82.2867 96.7236 82.5697 97.529L84.4636 104.756L88.4473 98.3562Z" fill="#F1CA50"/>
<path d="M82.8961 95.0474H77.998V46.1107H89.122V88.8215C89.122 92.261 86.3356 95.0474 82.8961 95.0474Z" fill="#D98800"/>
<path d="M89.122 95.0474H82.439V56.1245C82.439 54.2741 83.941 52.7938 85.7696 52.7938C87.5982 52.7938 89.1003 54.2959 89.1003 56.1245V95.0474H89.122Z" fill="#FECC2F"/>
<path d="M91.3424 75.0199H86.9016C85.6825 75.0199 84.6812 74.0186 84.6812 72.7995V50.5516C84.6812 49.3325 85.6825 48.3312 86.9016 48.3312H91.3424C92.5615 48.3312 93.5629 49.3325 93.5629 50.5516V72.7995C93.5846 74.0403 92.5833 75.0199 91.3424 75.0199Z" fill="#FDE803"/>
<path d="M91.3425 75.0199C90.1234 75.0199 89.1221 74.0186 89.1221 72.7995V50.5516C89.1221 49.3325 90.1234 48.3312 91.3425 48.3312C92.5616 48.3312 93.5629 49.3325 93.5629 50.5516V72.7995C93.5847 74.0403 92.5833 75.0199 91.3425 75.0199Z" fill="#FDED32"/>
<path d="M84.1371 105.279C83.8759 105.692 83.2663 105.692 83.0051 105.279L80.7847 101.73H86.3358L84.1371 105.279Z" fill="#5A1404"/>
<path d="M37.0507 69.0552L38.8575 73.2566C38.9228 73.409 39.0535 73.496 39.2058 73.5178L43.7555 73.9314C44.1256 73.975 44.278 74.4321 43.995 74.6933L40.5555 77.6974C40.4467 77.8063 40.3814 77.9587 40.4249 78.1111L41.448 82.5737C41.5351 82.9438 41.1433 83.2268 40.8167 83.0308L36.8983 80.6798C36.7677 80.5927 36.5936 80.5927 36.4629 80.6798L32.5445 83.0308C32.218 83.2268 31.8262 82.9438 31.9132 82.5737L32.9364 78.1111C32.9799 77.9587 32.9146 77.7845 32.8058 77.6974L29.3663 74.6933C29.0833 74.4539 29.2356 73.975 29.6057 73.9314L34.1554 73.5178C34.3078 73.496 34.4602 73.409 34.5037 73.2566L36.3106 69.0552C36.4194 68.7069 36.9201 68.7069 37.0507 69.0552Z" fill="#FECC2F"/>
</g>
<defs>
<clipPath id="clip0_213_913">
<rect width="109.367" height="111" fill="white" transform="translate(0 0.00402832)"/>
</clipPath>
</defs>
</svg>
