<svg width="121" height="121" viewBox="0 0 121 121" fill="none" xmlns="http://www.w3.org/2000/svg">
<g clip-path="url(#clip0_213_943)">
<path d="M0 66.7182C0 36.7352 24.3029 12.4323 54.2859 12.4323C84.2689 12.4323 108.572 36.7352 108.572 66.7182C108.572 85.753 98.7727 102.511 83.9438 112.202C75.4236 106.63 65.2342 103.4 54.2859 103.4C43.3377 103.4 33.1699 106.63 24.6281 112.202C9.79922 102.511 0 85.753 0 66.7182Z" fill="#5A1404"/>
<path d="M86.1766 29.9493V41.0277C86.1766 42.1767 85.3094 43.1306 84.182 43.239V112.05C75.5969 117.73 65.3207 121.026 54.2641 121.026C43.2074 121.026 32.9312 117.73 24.3461 112.05V56.5503H24.1293C22.9152 56.5503 21.918 55.5531 21.918 54.339V49.8947C21.918 48.6806 22.9152 47.6833 24.1293 47.6833H24.3461V43.2607H24.1293C22.9152 43.2607 21.918 42.2634 21.918 41.0493V29.9493C21.918 28.7353 22.9152 27.738 24.1293 27.738H24.3461V12.2154C24.3678 11.0013 25.365 10.004 26.5791 10.004H81.9707C83.1848 10.004 84.182 11.0013 84.182 12.2154V27.738C85.3094 27.8464 86.1766 28.8003 86.1766 29.9493Z" fill="#F19B0B"/>
<path d="M84.1823 12.4756V112.029C75.5972 117.709 65.321 121.004 54.2644 121.004C46.7198 121.004 39.5222 119.465 32.9966 116.668V12.4756C32.9966 11.2615 33.9938 10.2643 35.2079 10.2643H81.9493C83.2067 10.2643 84.1823 11.2399 84.1823 12.4756Z" fill="#FECC2F"/>
<path d="M57.6027 113.481C57.6027 115.324 56.1068 116.798 54.2857 116.798C52.4646 116.798 50.9687 115.302 50.9687 113.481C50.9687 111.66 52.4646 110.164 54.2857 110.164C56.1068 110.164 57.6027 111.638 57.6027 113.481ZM60.3777 13.8846H48.1937C47.2832 13.8846 46.5244 14.6218 46.5244 15.554C46.5244 16.4862 47.2615 17.2233 48.1937 17.2233H60.3777C61.2883 17.2233 62.0471 16.4862 62.0471 15.554C62.0471 14.6218 61.2883 13.8846 60.3777 13.8846Z" fill="#5A1404"/>
<path d="M79.8682 23.2937V103.053C79.8682 104.267 78.8709 105.265 77.6568 105.265H30.9154C29.7014 105.265 28.7041 104.267 28.7041 103.053V23.2937C28.7041 22.0797 29.7014 21.0824 30.9154 21.0824H77.6568C78.8709 21.0824 79.8682 22.0797 79.8682 23.2937Z" fill="#FFF5F5"/>
<path d="M70.8924 90.5874C70.8924 91.498 70.1553 92.2568 69.223 92.2568H39.3051C38.3945 92.2568 37.6357 91.5197 37.6357 90.5874C37.6357 89.6769 38.3729 88.9181 39.3051 88.9181H69.223C70.1553 88.9398 70.8924 89.6769 70.8924 90.5874ZM64.8004 95.0318H43.7494C42.8389 95.0318 42.0801 95.7689 42.0801 96.7011C42.0801 97.6333 42.8172 98.3704 43.7494 98.3704H64.8004C65.7109 98.3704 66.4697 97.6333 66.4697 96.7011C66.4697 95.7689 65.7326 95.0318 64.8004 95.0318Z" fill="#FADEB9"/>
<path d="M71.6947 29.9711L69.44 31.2935C69.375 31.3369 69.31 31.3802 69.2883 31.4453L67.9658 33.7C67.7924 34.0035 67.3805 34.0035 67.207 33.7L65.8846 31.4453C65.8412 31.3802 65.7979 31.3152 65.7328 31.2935L63.4781 29.9711C63.1746 29.7976 63.1746 29.3857 63.4781 29.2123L65.7328 27.8898C65.7979 27.8465 65.8629 27.8031 65.8846 27.7381L67.207 25.4834C67.3805 25.1799 67.7924 25.1799 67.9658 25.4834L69.2883 27.7381C69.3316 27.8031 69.375 27.8681 69.44 27.8898L71.6947 29.2123C71.9766 29.3857 71.9766 29.7976 71.6947 29.9711Z" fill="#FDF385"/>
<path d="M68.4211 52.171C68.3995 53.8187 67.5539 55.1628 66.2965 55.5314H66.2748C62.134 56.7238 57.6897 55.1412 54.286 51.6941C50.8606 55.1412 46.4163 56.7238 42.2971 55.5314H42.2754C41.018 55.1628 40.1725 53.8404 40.1508 52.171C40.1075 50.1332 40.3893 47.9869 40.9963 45.8406C41.6034 43.6943 42.5356 41.7431 43.6629 40.0304C44.5735 38.6429 46.0043 37.9709 47.2618 38.3394H47.2834C50.427 39.25 52.8551 41.613 54.3077 44.7783C55.7602 41.613 58.1883 39.25 61.3319 38.3394H61.3536C62.611 37.9709 64.0202 38.6646 64.9524 40.0304C66.0797 41.7431 66.9903 43.6943 67.619 45.8406C68.1827 47.9869 68.4645 50.1332 68.4211 52.171Z" fill="#D73131"/>
<path d="M67.3371 77.146H41.2348C40.6711 77.146 40.2158 76.6908 40.2158 76.1271V48.854C40.2158 48.2904 40.6711 47.8351 41.2348 47.8351H67.3371C67.9008 47.8351 68.3561 48.2904 68.3561 48.854V76.1271C68.3561 76.6908 67.9008 77.146 67.3371 77.146Z" fill="#D98800"/>
<path d="M67.3369 77.1461H44.0963C43.5326 77.1461 43.0773 76.6908 43.0773 76.1271V56.9189C43.0773 56.3552 43.5326 55.9 44.0963 55.9H68.3559V76.1054C68.3559 76.6908 67.9006 77.1461 67.3369 77.1461ZM69.5266 52.9082V48.8758C69.5266 48.3121 69.0713 47.8568 68.5076 47.8568H40.0639C39.5002 47.8568 39.0449 48.3121 39.0449 48.8758V52.9082C39.0449 53.4718 39.5002 53.9271 40.0639 53.9271H68.5076C69.0713 53.9054 69.5266 53.4502 69.5266 52.9082Z" fill="#F5C02C"/>
<path d="M57.3213 46.8379V77.1461H51.251V46.9246C51.251 45.2987 52.5084 43.8895 54.1344 43.8028C55.8688 43.7377 57.3213 45.1035 57.3213 46.8379Z" fill="#F52C2C"/>
<path d="M57.3213 55.9216H51.251V53.9054H57.3213V55.9216Z" fill="#D73131"/>
<path d="M51.251 47.8567V46.8378C51.251 45.1684 52.6168 43.8026 54.2861 43.8026C55.9555 43.8026 57.3213 45.1684 57.3213 46.8378V47.8567H51.251Z" fill="#D73131"/>
<path d="M43.5328 30.9466V33.3964C43.5328 33.6349 43.3593 33.8083 43.1209 33.83C41.9718 33.9167 40.9312 34.4154 40.1291 35.1525C39.2402 35.9763 38.6765 37.1036 38.5681 38.3827C38.5465 38.6212 38.3513 38.7947 38.1345 38.7947H35.6848C35.4246 38.7947 35.2295 38.5779 35.2512 38.3177C35.4896 34.1118 38.8717 30.7298 43.0775 30.4913C43.316 30.4913 43.5328 30.7081 43.5328 30.9466Z" fill="#FADEB9"/>
</g>
<path d="M94.7 52.304L120.1 24.104L82.6 0.00402832L67.4 35.104C62.4 32.004 59 29.804 59 29.804L68.7 62.904C68.7 62.904 101.6 58.004 102.8 58.004C103.2 57.904 99.8 55.604 94.7 52.304Z" fill="white"/>
<path d="M93.5998 51.204L117.4 24.804L82.2998 2.20398L68.1998 35.004C63.4998 32.104 60.2998 30.104 60.2998 30.104L69.3998 61.104C69.3998 61.104 100.1 56.504 101.3 56.504C101.6 56.404 98.3998 54.304 93.5998 51.204Z" fill="#FFD300"/>
<path d="M86.9873 38.3805C90.8476 40.9115 94.5048 39.7434 96.7397 36.4336C99.381 32.5398 98.3651 29.2301 94.7079 26.8938L88.8159 23L82.9238 31.5664L80.2825 29.8142L78.2508 32.5398L80.8921 34.292L79.673 36.0442L77.0317 34.292L75 37.0177L77.6413 38.7699L75.8127 41.4956L79.0635 43.6372L80.8921 40.9115L87.1905 45L89.2222 42.2743L82.9238 38.1858L83.9397 36.6283L86.9873 38.3805ZM90.0349 28.062L92.6762 29.8142C94.5048 30.9823 94.9111 32.7345 93.4889 34.4867C92.2698 36.2389 90.6444 36.823 88.6127 35.4602L85.9714 33.708L90.0349 28.062Z" fill="#571D00"/>
<defs>
<clipPath id="clip0_213_943">
<rect width="108.572" height="111" fill="white" transform="translate(0 10.004)"/>
</clipPath>
</defs>
</svg>
