<svg width="196" height="99" viewBox="0 0 196 99" fill="none" xmlns="http://www.w3.org/2000/svg">
<path d="M33.0725 11.2012C-22.4403 72.6775 93.1356 85.8324 93.1356 85.8324C114.197 57.5689 71.0345 -30.8684 33.0725 11.2012ZM90.5355 77.7571C90.5355 77.7571 9.54134 68.5096 48.4133 25.3981C74.9346 -4.03763 105.226 57.9597 90.5355 77.7571Z" fill="#E92E00"/>
<path d="M104.966 86.2231C104.966 86.2231 191.03 71.1146 147.478 26.1796C117.576 -4.55859 88.195 65.514 104.966 86.2231ZM136.427 37.9017C166.979 69.4214 106.656 79.9713 106.656 79.9713C94.9553 65.3837 115.496 16.2808 136.427 37.9017Z" fill="#E92E00"/>
<path d="M96.5155 94.5589C96.5155 94.5589 32.1623 105.89 0.180664 89.349L14.3514 80.6225L2.65078 66.0349C2.65078 66.1652 59.2036 93.3867 96.5155 94.5589Z" fill="#E92E00"/>
<path d="M98.9858 94.0379C98.9858 94.0379 163.339 105.63 195.321 89.0885L181.15 80.362L192.981 65.7744C192.851 65.9047 136.298 92.9959 98.9858 94.0379Z" fill="#E92E00"/>
</svg>
