<svg width="967" height="344" viewBox="0 0 967 344" fill="none" xmlns="http://www.w3.org/2000/svg">
<path d="M1.79066 0.915026L3.48075 171.538L4.13078 256.458L4.5208 298.919L4.78082 341.249L2.70071 339.165L121.917 338.904L181.59 338.774H241.263C320.697 338.905 400.261 339.295 479.695 339.686C559.129 340.077 638.693 340.207 718.127 340.337L837.343 340.207L956.559 339.816L955.129 341.249L958.379 172.71L961.889 4.17119L964.359 6.64586L724.237 5.99463L604.111 5.47365L483.985 4.69216L243.213 2.99897L1.79066 0.915026ZM1.40064 0.524283L241.393 0.263794H482.035L602.551 0.394038L723.197 0.784772L964.359 1.82675H966.829V4.30143L962.539 172.84L957.989 341.249V342.682H956.559L837.343 342.291L718.127 342.161C638.693 342.161 559.129 342.291 479.695 342.812C400.261 343.203 320.697 343.593 241.263 343.724H181.59L121.917 343.593L2.70071 343.333H0.620605V341.249V298.528V255.807L0.750612 170.496L1.40064 0.524283Z" fill="#F41414"/>
</svg>
