<svg width="336" height="803" viewBox="0 0 336 803" fill="none" xmlns="http://www.w3.org/2000/svg">
<path d="M0.738249 0.994265L1.3243 177.954L1.54971 266.028L1.68495 310.065L1.77511 800.433L1.05382 798.272L42.3932 798.002L63.0854 797.867H83.7776C111.322 798.002 138.912 798.407 166.456 798.812C194.001 799.218 221.59 799.353 249.135 799.488L290.474 799.353L331.814 798.948L331.318 800.433L332.445 179.169L332 4.5L334.518 6.93793L251.254 6.26251L209.599 5.72218L167.944 4.91167L84.4538 3.1556L0.738249 0.994265ZM0.603006 0.58901L83.8227 0.318848H167.268L209.058 0.453929L250.893 0.859173L334.518 1.93984H335.375V4.50643L333.887 179.304L332.31 800.433V801.919H331.814L290.474 801.514L249.135 801.379C221.59 801.379 194.001 801.514 166.456 802.054C138.912 802.46 111.322 802.865 83.7776 803H63.0854L42.3932 802.865L1.05382 802.595H0.33252V800.433V309.66V265.352L0.377601 176.873L0.603006 0.58901Z" fill="#F41414"/>
</svg>
