<svg width="341" height="831" viewBox="0 0 341 831" fill="none" xmlns="http://www.w3.org/2000/svg">
<path d="M0.0901622 0.405254L4.19254 187.631L6.17611 280.838L7.16789 327.442L9.5 827.5L7.43838 825.805L47.8761 823.373L68.0724 822.157L88.2688 821.077C115.227 819.726 142.186 818.645 169.144 817.565C196.103 816.484 223.061 815.133 250.02 813.782L290.457 811.351L330.895 808.649L330.399 810L334.321 190.873L338.334 25.6658L339.145 28.3675L254.528 22.2888L212.242 18.9117L169.911 15.3995L85.1131 7.96992L0.0901622 0.405254ZM0 0L84.482 5.13317L169.28 10.6716L211.746 13.5083L254.212 16.6153L339.19 23.3694L340.092 23.5045L340.002 26.2062L335.719 191.278L331.346 810.27L331.301 811.621H330.85L290.412 813.377L249.975 815.403C223.016 816.889 196.058 818.51 169.099 820.537C142.141 822.428 115.182 824.319 88.2688 825.94L68.0724 827.156L47.8761 828.101L7.43838 830.127H6.76216L6.71708 828.101L5.81546 327.307L5.004 280.298L3.29092 186.55L0 0Z" fill="white"/>
</svg>
