<svg width="982" height="364" viewBox="0 0 982 364" fill="none" xmlns="http://www.w3.org/2000/svg">
<path d="M0.730228 0.848385L12.5608 181.37L18.2811 271.24L21.1413 316.175L24.0014 360.98L21.9213 359.026L138.537 356.682L196.78 355.509L255.023 354.467C332.767 353.165 410.511 352.123 488.255 351.081C565.999 350.039 643.743 348.737 721.487 347.434L838.103 345.09L954.719 342.485L953.288 343.787L964.599 184.496L976.17 25.2045L978.51 27.8094L734.487 21.9483L612.541 18.6921L490.465 15.3057L245.923 8.14218L0.730228 0.848385ZM0.470215 0.457642L244.103 5.40701L488.645 10.7471L611.111 13.4823L733.577 16.478L978.64 22.9903L981.24 23.1205L980.98 25.7255L968.629 184.887L956.019 344.048L955.888 345.35H954.588L837.973 347.043L721.357 348.997C643.613 350.43 565.869 351.993 488.125 353.946C410.381 355.77 332.637 357.593 255.023 359.156L196.78 360.328L138.537 361.24L21.9213 363.194H19.9712L19.8412 361.24L17.2411 316.045L14.9009 270.719L9.96069 180.328L0.470215 0.457642Z" fill="white"/>
</svg>
